<?xml version="1.0" encoding="utf-8"?>
<svg version="1.1" id="Layer_1" xmlns="http://www.w3.org/2000/svg" xmlns:xlink="http://www.w3.org/1999/xlink" x="0px" y="0px"
	 viewBox="0 0 1868.169 1624.149" enable-background="new 0 0 1868.169 1624.149" xml:space="preserve">
<path d="M995.154,24.233c4.837,0.019,9.674,0.056,14.511-0.084c0.233,10.477,0.028,20.954,0.121,31.422
	c10.515,0.149,21.029,0.009,31.544,0.037c0.57,7.965-0.532,15.865-0.896,23.812c-10.216,0.056-20.441-0.028-30.656,0.075
	c-1.338,49.339,1.475,21.446,58.96,254.954c1.384,6.424-14.507,77.581-22.729,128.061c2.69,0.61,49.672,3.77,54.702,3.95
	c-2.573,7.608-87.06,230.309-87.412,231.31c0,0,19.298,42.841,48.305,93.015c5.63,10.684,67.511,123.285,68.083,124.195
	c0.459-8.025-1.714-9.023-10.253-71.136c11.7-5.099,23.457-10.085,35.12-15.314c0.618-12.284-9.017-103.415-6.471-109.973
	c0.348-1.001,80.629-245.439,81.165-247.54c1.064-6.509,0.532-13.176,0.28-19.731c-10.468,0.037-20.926,0.019-31.375,0.009
	c-0.065-4.66-0.065-9.329,0-13.998c10.533-0.075,21.067,0.149,31.6-0.121c0.112-10.543-0.103-21.085,0.103-31.618
	c4.725-0.019,9.45-0.019,14.184,0.009c0.075,10.543-0.131,21.085,0.112,31.618c10.515,0.261,21.038,0.009,31.562,0.149
	c-0.065,4.641-0.084,9.282-0.019,13.932c-10.505,0.205-21.01-0.149-31.506,0.168c0.302,30.793-3.555,9.74,11.019,67.27
	c61.995,254.558,53.755,123.922,24.531,309.553c4.809,0.876,50.231,3.948,54.842,4.071c-0.397,1-77.305,204.25-79.886,212.55
	c4.053,1.065,8.105,2.12,12.186,3.1c-7.405,96.597-8.955,109.528-17.677,227.977c130.072,32.024,267.016,63.802,565.732,181.548
	c16.388,10.553,34.416,18.557,53.235,23.634c-0.37,47.669-0.244,95.341-0.244,143.011c0,0-1867.588,0-1867.588,0
	c0-92.569,0.95-167.762,0.95-167.762c-1.438-27.068-5.02-48.967,12.85-72.497c21.169-27.873,171.609-147.556,385.901-170.76
	c0.587-192.373,1.292-163.719-3.082-177.822c0-0.001-55.598-174.666-55.598-174.666c10.795-6.751,21.328-13.914,32.01-20.842
	c-2.825-20.181-25.438-96.549-23.774-109.133c0.177-1.022,40.516-253.703,39.677-259.978c-0.719-6.172-1.41-12.345-2.353-18.48
	c-10.505,0.626-20.88,2.503-31.329,3.623c-0.691-4.772-1.317-9.553-1.643-14.352c10.384-1.139,20.786-2.185,31.114-3.829
	c-0.859-10.524-2.848-20.926-3.558-31.46c4.716-0.56,9.431-1.149,14.166-1.41c1.307,10.365,2.185,20.805,4.034,31.105
	c10.328-1.111,20.618-2.764,30.983-3.474c1.093,4.548,1.317,9.254,1.812,13.895c-10.328,1.606-20.768,2.381-31.095,3.95
	c2.189,32.348-2.2,11.328,74.526,186.703c31.736,68.136,23.923,30.36,21.263,182.221c8.732-0.013,53.571-4.444,54.599-4.65
	c-11.482,57.582-28.163,140.293-28.163,140.293c6.12-3.948,61.827-40.608,64.647-43.477c-1.924-11.567-27.545-177.93-29.144-189.121
	c11.775-4.94,23.149-10.804,35.008-15.548c0.426-4.88,0.29-1.106-7.2-102.736c-0.985-6.961,77.906-239.789,81.735-253.703
	c0.654-6.723,0.121-13.512,0.196-20.263c-10.552-0.149-21.113-0.028-31.674-0.056c-0.019-4.66-0.028-9.329,0.019-13.988
	c10.552-0.103,21.104,0.065,31.656-0.093c0.14-10.543,0.028-21.094,0.065-31.646c4.781,0,9.571-0.037,14.352,0.187
	c0.103,10.496-0.346,21.001,0.215,31.488c10.393,0.084,20.786,0.009,31.189,0.037c0.009,4.678,0,9.357-0.009,14.035
	c-10.458,0.065-20.936-0.233-31.394,0.159c0.676,30.733-4.478,3.009,13.773,75.301c1.181,4.79,45.407,171.65,45.616,174.797
	c0.103,3.1-22.64,122.88-23.261,125.941c3.377,0.888,49.543,3.898,54.59,4.025c-2.984,9.101-38.117,102.405-38.239,102.839
	c5.473-3.274,177.747-118.6,182.249-121.748c-0.153-1.003-31.558-206.991-32.477-212.784c11.71-4.828,22.925-10.795,34.718-15.408
	c0.262-8.29-6.531-88.62-7.172-106.705c5.635-20.346,82.839-248.233,82.286-254.674c-0.513-7.396-0.159-14.81-0.411-22.206
	c-10.552-0.121-21.113,0.037-31.656-0.075c-0.486-7.9,0.654-15.772,0.392-23.662c10.44-0.261,20.889,0.047,31.338-0.168
	C995.201,45.122,994.93,34.683,995.154,24.233 M992.072,295.192c-0.103,7.592-0.037,15.193-0.037,22.794
	c8.451-0.009,16.92,0.233,25.371-0.149C1012.951,298.848,997.951,296.466,992.072,295.192 M962.882,317.818
	c7.209,0.392,14.436,0.196,21.655,0.121c0-7.312,0.084-14.614-0.047-21.925C973.555,297.844,965.263,307.294,962.882,317.818
	 M962.35,325.018c1.447,11.738,10.066,22.831,22.131,24.783c0.084-8.367,0.196-16.734-0.065-25.1
	C977.066,324.868,969.689,324.383,962.35,325.018 M992.138,324.654c-0.215,8.656-0.131,17.313-0.056,25.969
	c19.579-3.209,25.514-17.841,25.502-25.661C1009.123,324.355,1000.616,324.943,992.138,324.654 M955.85,491.7
	c-15.205,15.973-17.992,48.61-18.33,70.707c-0.488,3.385,2.863,2.763,29.265,2.82c-0.009-26.492,0.159-52.983-0.084-79.475
	C962.732,486.984,958.764,488.637,955.85,491.7 M971.529,485.621c-0.056,26.501-0.131,53.002,0.037,79.503
	c1.726,0.725,41.362,1.108,45.765,0.187C1018.448,530.994,996.29,487.955,971.529,485.621 M667.85,578.113
	c-0.374,7.321-0.112,14.651-0.103,21.972c8.908,0.103,17.826,0.261,26.734-0.075C692.004,588.635,683.509,579.741,667.85,578.113
	 M640.77,600.151c6.994-0.019,14.016,0.28,21.01-0.075c0.784-6.966,0.168-14.044,0.28-21.048
	C651.574,580.971,642.871,589.748,640.77,600.151 M639.939,605.828c0.084,12.662,9.469,24.792,22.159,26.865
	c-0.159-8.918,0.439-17.873-0.243-26.763C654.562,605.539,647.232,605.838,639.939,605.828 M667.784,605.894
	c-0.112,9.217-0.112,18.442,0.009,27.659c16.589-0.778,27.037-12.307,27.519-27.65C686.143,605.707,676.954,605.763,667.784,605.894
	 M1207.863,671.838c-5.015,4.127-8.208,10.206-8.983,16.631c7.853,0.009,15.706,0.075,23.569-0.037
	c-0.271-7.797,0.345-15.613-0.383-23.382C1216.986,666.46,1211.813,668.206,1207.863,671.838 M1227.052,664.919
	c-0.205,7.853-0.121,15.706-0.037,23.56c8.778-0.019,17.555,0.084,26.342-0.065C1250.006,675.258,1242.614,666.039,1227.052,664.919
	 M414.035,692.158c-0.065,8.731-0.019,17.471-0.028,26.212c8.563-0.009,17.126,0.028,25.689-0.028
	c-0.233-9.198-6.032-17.527-13.661-22.308C422.421,693.745,418.125,693.073,414.035,692.158 M384.658,718.323
	c7.909,0.103,15.828,0.028,23.746,0.047c-0.009-8.535,0.019-17.06-0.019-25.595C395.621,693.932,385.396,705.782,384.658,718.323
	 M1198.207,693.203c2.113,18.94,16.174,26.331,24.148,26.221c0.075-8.712,0.028-17.425,0.019-26.137
	C1214.315,693.035,1206.257,693.157,1198.207,693.203 M1227.071,693.185c-0.168,9.058-0.299,18.144,0.112,27.211
	c17.37-3.212,25.598-13.158,26.501-27.192C1244.804,693.119,1235.932,693.147,1227.071,693.185 M384.705,723.076
	c1.572,11.58,9.033,21.092,23.597,24.223c0.215-8.087,0.056-16.173,0.103-24.26C400.504,723.047,392.605,723.001,384.705,723.076
	 M414.007,723.038c0.019,8.161-0.065,16.323,0.056,24.493c16.004-2.596,24.26-12.645,25.605-24.484
	C431.114,723.029,422.561,723.038,414.007,723.038 M905.295,825.83c-13.361,16.949-16.13,63.663-14.25,69.045
	c9.73-0.009,19.47,0.383,29.2,0.728c0.289-26.492,0.215-52.993,0.047-79.494C914.213,817.146,908.862,820.881,905.295,825.83
	 M928.322,816.558c-0.374,26.398-0.205,52.815-0.075,79.214c14.026-0.047,28.06,0.187,42.086-0.121
	C970.232,864.053,954.171,824.875,928.322,816.558 M664.628,996.08c-13.071,17.709-14.903,63.813-13.568,67.765
	c9.795,0.243,19.6,0.439,29.396,0.85c0.596-5.532,0.326-77.654,0.317-79.466C673.957,985.92,668.429,990.673,664.628,996.08
	 M687.599,985.322c-0.289,26.492-0.037,52.983-0.103,79.475c14.259-0.187,28.574,0.411,42.805-0.28
	C730.44,1033.957,715.297,993.902,687.599,985.322 M886.731,993.764c-0.388,10.062-0.273,164.395-0.065,192.931
	c8.545,1.703,45.808,24.193,60.771,31.058c2.323-4.016,8.302-177.984,8.245-182.622
	C951.616,1032.946,886.785,993.784,886.731,993.764 M828.901,1037.101c-5.828,3.432-3.553,8.393-4.081,43.627
	c-1.465,10.227-2.713,119.425-2.699,129.05c10.507-2.753,9.998-3.138,57.858-20.039c-0.056-64.385,0.205-128.78-0.131-193.174
	C862.592,1009.722,846.092,1023.86,828.901,1037.101 M1103.212,1051.771c-0.075,26.734-0.168,53.488,0.037,80.232
	c14.558-0.532,29.153,0.7,43.692-0.355C1148.745,1106.428,1132.614,1059.557,1103.212,1051.771 M1081.959,1062.267
	c-11.953,15.869-14.168,46.246-14.745,66.019c-0.061,3.696,1.63,2.82,28.434,2.97c-0.009-26.314,0.14-52.629-0.075-78.934
	C1089.822,1053.461,1085.256,1057.617,1081.959,1062.267 M495.938,1070.185c-13.188,17.214-15.467,64.024-13.876,68.4
	c9.786,0.121,19.563,0.42,29.34,0.784c0.512-5.593,0.293-74.892,0.28-79.419C505.117,1060.605,499.701,1065.021,495.938,1070.185
	 M519.451,1060.287c-0.177,26.398-0.019,52.806-0.065,79.214c14.007-0.103,28.014,0.252,42.011-0.187
	C561.148,1108.493,546.231,1069.235,519.451,1060.287z"/>
</svg>
